<?xml version="1.0" encoding="utf-8"?>
<svg xmlns="http://www.w3.org/2000/svg" xmlns:xlink="http://www.w3.org/1999/xlink" width="600" height="400" viewBox="0 0 2400 1600">
<defs>
  <clipPath id="clip340">
    <rect x="0" y="0" width="2400" height="1600"/>
  </clipPath>
</defs>
<path clip-path="url(#clip340)" d="M0 1600 L2400 1600 L2400 0 L0 0  Z" fill="#ffffff" fill-rule="evenodd" fill-opacity="1"/>
<defs>
  <clipPath id="clip341">
    <rect x="480" y="0" width="1681" height="1600"/>
  </clipPath>
</defs>
<path clip-path="url(#clip340)" d="M170.857 1486.45 L2352.76 1486.45 L2352.76 47.2441 L170.857 47.2441  Z" fill="#ffffff" fill-rule="evenodd" fill-opacity="1"/>
<defs>
  <clipPath id="clip342">
    <rect x="170" y="47" width="2183" height="1440"/>
  </clipPath>
</defs>
<polyline clip-path="url(#clip342)" style="stroke:#000000; stroke-linecap:round; stroke-linejoin:round; stroke-width:2; stroke-opacity:0.1; fill:none" points="461.32,1486.45 461.32,47.2441 "/>
<polyline clip-path="url(#clip342)" style="stroke:#000000; stroke-linecap:round; stroke-linejoin:round; stroke-width:2; stroke-opacity:0.1; fill:none" points="918.741,1486.45 918.741,47.2441 "/>
<polyline clip-path="url(#clip342)" style="stroke:#000000; stroke-linecap:round; stroke-linejoin:round; stroke-width:2; stroke-opacity:0.1; fill:none" points="1376.16,1486.45 1376.16,47.2441 "/>
<polyline clip-path="url(#clip342)" style="stroke:#000000; stroke-linecap:round; stroke-linejoin:round; stroke-width:2; stroke-opacity:0.1; fill:none" points="1833.58,1486.45 1833.58,47.2441 "/>
<polyline clip-path="url(#clip342)" style="stroke:#000000; stroke-linecap:round; stroke-linejoin:round; stroke-width:2; stroke-opacity:0.1; fill:none" points="2291,1486.45 2291,47.2441 "/>
<polyline clip-path="url(#clip342)" style="stroke:#000000; stroke-linecap:round; stroke-linejoin:round; stroke-width:2; stroke-opacity:0.1; fill:none" points="170.857,1459.43 2352.76,1459.43 "/>
<polyline clip-path="url(#clip342)" style="stroke:#000000; stroke-linecap:round; stroke-linejoin:round; stroke-width:2; stroke-opacity:0.1; fill:none" points="170.857,1116.57 2352.76,1116.57 "/>
<polyline clip-path="url(#clip342)" style="stroke:#000000; stroke-linecap:round; stroke-linejoin:round; stroke-width:2; stroke-opacity:0.1; fill:none" points="170.857,773.703 2352.76,773.703 "/>
<polyline clip-path="url(#clip342)" style="stroke:#000000; stroke-linecap:round; stroke-linejoin:round; stroke-width:2; stroke-opacity:0.1; fill:none" points="170.857,430.84 2352.76,430.84 "/>
<polyline clip-path="url(#clip342)" style="stroke:#000000; stroke-linecap:round; stroke-linejoin:round; stroke-width:2; stroke-opacity:0.1; fill:none" points="170.857,87.9763 2352.76,87.9763 "/>
<polyline clip-path="url(#clip340)" style="stroke:#000000; stroke-linecap:round; stroke-linejoin:round; stroke-width:4; stroke-opacity:1; fill:none" points="170.857,1486.45 2352.76,1486.45 "/>
<polyline clip-path="url(#clip340)" style="stroke:#000000; stroke-linecap:round; stroke-linejoin:round; stroke-width:4; stroke-opacity:1; fill:none" points="461.32,1486.45 461.32,1467.55 "/>
<polyline clip-path="url(#clip340)" style="stroke:#000000; stroke-linecap:round; stroke-linejoin:round; stroke-width:4; stroke-opacity:1; fill:none" points="918.741,1486.45 918.741,1467.55 "/>
<polyline clip-path="url(#clip340)" style="stroke:#000000; stroke-linecap:round; stroke-linejoin:round; stroke-width:4; stroke-opacity:1; fill:none" points="1376.16,1486.45 1376.16,1467.55 "/>
<polyline clip-path="url(#clip340)" style="stroke:#000000; stroke-linecap:round; stroke-linejoin:round; stroke-width:4; stroke-opacity:1; fill:none" points="1833.58,1486.45 1833.58,1467.55 "/>
<polyline clip-path="url(#clip340)" style="stroke:#000000; stroke-linecap:round; stroke-linejoin:round; stroke-width:4; stroke-opacity:1; fill:none" points="2291,1486.45 2291,1467.55 "/>
<path clip-path="url(#clip340)" d="M455.973 1544.91 L472.292 1544.91 L472.292 1548.85 L450.348 1548.85 L450.348 1544.91 Q453.01 1542.16 457.593 1537.53 Q462.199 1532.88 463.38 1531.53 Q465.625 1529.01 466.505 1527.27 Q467.408 1525.51 467.408 1523.82 Q467.408 1521.07 465.463 1519.33 Q463.542 1517.6 460.44 1517.6 Q458.241 1517.6 455.787 1518.36 Q453.357 1519.13 450.579 1520.68 L450.579 1515.95 Q453.403 1514.82 455.857 1514.24 Q458.311 1513.66 460.348 1513.66 Q465.718 1513.66 468.912 1516.35 Q472.107 1519.03 472.107 1523.52 Q472.107 1525.65 471.297 1527.57 Q470.51 1529.47 468.403 1532.07 Q467.824 1532.74 464.723 1535.95 Q461.621 1539.15 455.973 1544.91 Z" fill="#000000" fill-rule="nonzero" fill-opacity="1" /><path clip-path="url(#clip340)" d="M921.75 1518.36 L909.945 1536.81 L921.75 1536.81 L921.75 1518.36 M920.523 1514.29 L926.403 1514.29 L926.403 1536.81 L931.333 1536.81 L931.333 1540.7 L926.403 1540.7 L926.403 1548.85 L921.75 1548.85 L921.75 1540.7 L906.148 1540.7 L906.148 1536.19 L920.523 1514.29 Z" fill="#000000" fill-rule="nonzero" fill-opacity="1" /><path clip-path="url(#clip340)" d="M1376.57 1529.7 Q1373.42 1529.7 1371.57 1531.86 Q1369.74 1534.01 1369.74 1537.76 Q1369.74 1541.49 1371.57 1543.66 Q1373.42 1545.82 1376.57 1545.82 Q1379.72 1545.82 1381.54 1543.66 Q1383.4 1541.49 1383.4 1537.76 Q1383.4 1534.01 1381.54 1531.86 Q1379.72 1529.7 1376.57 1529.7 M1385.85 1515.05 L1385.85 1519.31 Q1384.09 1518.48 1382.28 1518.04 Q1380.5 1517.6 1378.74 1517.6 Q1374.11 1517.6 1371.66 1520.72 Q1369.23 1523.85 1368.88 1530.17 Q1370.25 1528.15 1372.31 1527.09 Q1374.37 1526 1376.84 1526 Q1382.05 1526 1385.06 1529.17 Q1388.09 1532.32 1388.09 1537.76 Q1388.09 1543.08 1384.95 1546.3 Q1381.8 1549.52 1376.57 1549.52 Q1370.57 1549.52 1367.4 1544.94 Q1364.23 1540.33 1364.23 1531.6 Q1364.23 1523.41 1368.12 1518.55 Q1372.01 1513.66 1378.56 1513.66 Q1380.32 1513.66 1382.1 1514.01 Q1383.9 1514.36 1385.85 1515.05 Z" fill="#000000" fill-rule="nonzero" fill-opacity="1" /><path clip-path="url(#clip340)" d="M1833.58 1532.44 Q1830.25 1532.44 1828.33 1534.22 Q1826.43 1536 1826.43 1539.13 Q1826.43 1542.25 1828.33 1544.03 Q1830.25 1545.82 1833.58 1545.82 Q1836.92 1545.82 1838.84 1544.03 Q1840.76 1542.23 1840.76 1539.13 Q1840.76 1536 1838.84 1534.22 Q1836.94 1532.44 1833.58 1532.44 M1828.91 1530.45 Q1825.9 1529.7 1824.21 1527.64 Q1822.54 1525.58 1822.54 1522.62 Q1822.54 1518.48 1825.48 1516.07 Q1828.44 1513.66 1833.58 1513.66 Q1838.75 1513.66 1841.68 1516.07 Q1844.62 1518.48 1844.62 1522.62 Q1844.62 1525.58 1842.93 1527.64 Q1841.27 1529.7 1838.28 1530.45 Q1841.66 1531.23 1843.54 1533.52 Q1845.43 1535.82 1845.43 1539.13 Q1845.43 1544.15 1842.36 1546.83 Q1839.3 1549.52 1833.58 1549.52 Q1827.87 1549.52 1824.79 1546.83 Q1821.73 1544.15 1821.73 1539.13 Q1821.73 1535.82 1823.63 1533.52 Q1825.53 1531.23 1828.91 1530.45 M1827.19 1523.06 Q1827.19 1525.75 1828.86 1527.25 Q1830.55 1528.76 1833.58 1528.76 Q1836.59 1528.76 1838.28 1527.25 Q1839.99 1525.75 1839.99 1523.06 Q1839.99 1520.38 1838.28 1518.87 Q1836.59 1517.37 1833.58 1517.37 Q1830.55 1517.37 1828.86 1518.87 Q1827.19 1520.38 1827.19 1523.06 Z" fill="#000000" fill-rule="nonzero" fill-opacity="1" /><path clip-path="url(#clip340)" d="M2265.69 1544.91 L2273.33 1544.91 L2273.33 1518.55 L2265.02 1520.21 L2265.02 1515.95 L2273.28 1514.29 L2277.96 1514.29 L2277.96 1544.91 L2285.6 1544.91 L2285.6 1548.85 L2265.69 1548.85 L2265.69 1544.91 Z" fill="#000000" fill-rule="nonzero" fill-opacity="1" /><path clip-path="url(#clip340)" d="M2305.04 1517.37 Q2301.43 1517.37 2299.6 1520.93 Q2297.8 1524.47 2297.8 1531.6 Q2297.8 1538.71 2299.6 1542.27 Q2301.43 1545.82 2305.04 1545.82 Q2308.68 1545.82 2310.48 1542.27 Q2312.31 1538.71 2312.31 1531.6 Q2312.31 1524.47 2310.48 1520.93 Q2308.68 1517.37 2305.04 1517.37 M2305.04 1513.66 Q2310.85 1513.66 2313.91 1518.27 Q2316.99 1522.85 2316.99 1531.6 Q2316.99 1540.33 2313.91 1544.94 Q2310.85 1549.52 2305.04 1549.52 Q2299.23 1549.52 2296.15 1544.94 Q2293.1 1540.33 2293.1 1531.6 Q2293.1 1522.85 2296.15 1518.27 Q2299.23 1513.66 2305.04 1513.66 Z" fill="#000000" fill-rule="nonzero" fill-opacity="1" /><polyline clip-path="url(#clip340)" style="stroke:#000000; stroke-linecap:round; stroke-linejoin:round; stroke-width:4; stroke-opacity:1; fill:none" points="170.857,1486.45 170.857,47.2441 "/>
<polyline clip-path="url(#clip340)" style="stroke:#000000; stroke-linecap:round; stroke-linejoin:round; stroke-width:4; stroke-opacity:1; fill:none" points="170.857,1459.43 189.755,1459.43 "/>
<polyline clip-path="url(#clip340)" style="stroke:#000000; stroke-linecap:round; stroke-linejoin:round; stroke-width:4; stroke-opacity:1; fill:none" points="170.857,1116.57 189.755,1116.57 "/>
<polyline clip-path="url(#clip340)" style="stroke:#000000; stroke-linecap:round; stroke-linejoin:round; stroke-width:4; stroke-opacity:1; fill:none" points="170.857,773.703 189.755,773.703 "/>
<polyline clip-path="url(#clip340)" style="stroke:#000000; stroke-linecap:round; stroke-linejoin:round; stroke-width:4; stroke-opacity:1; fill:none" points="170.857,430.84 189.755,430.84 "/>
<polyline clip-path="url(#clip340)" style="stroke:#000000; stroke-linecap:round; stroke-linejoin:round; stroke-width:4; stroke-opacity:1; fill:none" points="170.857,87.9763 189.755,87.9763 "/>
<path clip-path="url(#clip340)" d="M122.913 1445.23 Q119.302 1445.23 117.473 1448.79 Q115.668 1452.34 115.668 1459.46 Q115.668 1466.57 117.473 1470.14 Q119.302 1473.68 122.913 1473.68 Q126.547 1473.68 128.353 1470.14 Q130.182 1466.57 130.182 1459.46 Q130.182 1452.34 128.353 1448.79 Q126.547 1445.23 122.913 1445.23 M122.913 1441.53 Q128.723 1441.53 131.779 1446.13 Q134.857 1450.72 134.857 1459.46 Q134.857 1468.19 131.779 1472.8 Q128.723 1477.38 122.913 1477.38 Q117.103 1477.38 114.024 1472.8 Q110.969 1468.19 110.969 1459.46 Q110.969 1450.72 114.024 1446.13 Q117.103 1441.53 122.913 1441.53 Z" fill="#000000" fill-rule="nonzero" fill-opacity="1" /><path clip-path="url(#clip340)" d="M82.7975 1099.29 L101.154 1099.29 L101.154 1103.22 L87.0799 1103.22 L87.0799 1111.69 Q88.0984 1111.35 89.1169 1111.18 Q90.1354 1111 91.1539 1111 Q96.941 1111 100.321 1114.17 Q103.7 1117.34 103.7 1122.76 Q103.7 1128.34 100.228 1131.44 Q96.7558 1134.52 90.4364 1134.52 Q88.2604 1134.52 85.9919 1134.15 Q83.7466 1133.78 81.3392 1133.04 L81.3392 1128.34 Q83.4225 1129.47 85.6447 1130.03 Q87.8669 1130.58 90.3438 1130.58 Q94.3484 1130.58 96.6863 1128.48 Q99.0243 1126.37 99.0243 1122.76 Q99.0243 1119.15 96.6863 1117.04 Q94.3484 1114.93 90.3438 1114.93 Q88.4688 1114.93 86.5938 1115.35 Q84.7419 1115.77 82.7975 1116.65 L82.7975 1099.29 Z" fill="#000000" fill-rule="nonzero" fill-opacity="1" /><path clip-path="url(#clip340)" d="M122.913 1102.37 Q119.302 1102.37 117.473 1105.93 Q115.668 1109.47 115.668 1116.6 Q115.668 1123.71 117.473 1127.27 Q119.302 1130.81 122.913 1130.81 Q126.547 1130.81 128.353 1127.27 Q130.182 1123.71 130.182 1116.6 Q130.182 1109.47 128.353 1105.93 Q126.547 1102.37 122.913 1102.37 M122.913 1098.66 Q128.723 1098.66 131.779 1103.27 Q134.857 1107.85 134.857 1116.6 Q134.857 1125.33 131.779 1129.93 Q128.723 1134.52 122.913 1134.52 Q117.103 1134.52 114.024 1129.93 Q110.969 1125.33 110.969 1116.6 Q110.969 1107.85 114.024 1103.27 Q117.103 1098.66 122.913 1098.66 Z" fill="#000000" fill-rule="nonzero" fill-opacity="1" /><path clip-path="url(#clip340)" d="M53.3995 787.048 L61.0384 787.048 L61.0384 760.682 L52.7282 762.349 L52.7282 758.09 L60.9921 756.423 L65.668 756.423 L65.668 787.048 L73.3068 787.048 L73.3068 790.983 L53.3995 790.983 L53.3995 787.048 Z" fill="#000000" fill-rule="nonzero" fill-opacity="1" /><path clip-path="url(#clip340)" d="M92.7512 759.502 Q89.1401 759.502 87.3114 763.067 Q85.5058 766.608 85.5058 773.738 Q85.5058 780.844 87.3114 784.409 Q89.1401 787.951 92.7512 787.951 Q96.3854 787.951 98.1909 784.409 Q100.02 780.844 100.02 773.738 Q100.02 766.608 98.1909 763.067 Q96.3854 759.502 92.7512 759.502 M92.7512 755.798 Q98.5613 755.798 101.617 760.405 Q104.696 764.988 104.696 773.738 Q104.696 782.465 101.617 787.071 Q98.5613 791.655 92.7512 791.655 Q86.941 791.655 83.8623 787.071 Q80.8068 782.465 80.8068 773.738 Q80.8068 764.988 83.8623 760.405 Q86.941 755.798 92.7512 755.798 Z" fill="#000000" fill-rule="nonzero" fill-opacity="1" /><path clip-path="url(#clip340)" d="M122.913 759.502 Q119.302 759.502 117.473 763.067 Q115.668 766.608 115.668 773.738 Q115.668 780.844 117.473 784.409 Q119.302 787.951 122.913 787.951 Q126.547 787.951 128.353 784.409 Q130.182 780.844 130.182 773.738 Q130.182 766.608 128.353 763.067 Q126.547 759.502 122.913 759.502 M122.913 755.798 Q128.723 755.798 131.779 760.405 Q134.857 764.988 134.857 773.738 Q134.857 782.465 131.779 787.071 Q128.723 791.655 122.913 791.655 Q117.103 791.655 114.024 787.071 Q110.969 782.465 110.969 773.738 Q110.969 764.988 114.024 760.405 Q117.103 755.798 122.913 755.798 Z" fill="#000000" fill-rule="nonzero" fill-opacity="1" /><path clip-path="url(#clip340)" d="M53.3995 444.185 L61.0384 444.185 L61.0384 417.819 L52.7282 419.486 L52.7282 415.226 L60.9921 413.56 L65.668 413.56 L65.668 444.185 L73.3068 444.185 L73.3068 448.12 L53.3995 448.12 L53.3995 444.185 Z" fill="#000000" fill-rule="nonzero" fill-opacity="1" /><path clip-path="url(#clip340)" d="M82.7975 413.56 L101.154 413.56 L101.154 417.495 L87.0799 417.495 L87.0799 425.967 Q88.0984 425.62 89.1169 425.458 Q90.1354 425.273 91.1539 425.273 Q96.941 425.273 100.321 428.444 Q103.7 431.615 103.7 437.032 Q103.7 442.611 100.228 445.712 Q96.7558 448.791 90.4364 448.791 Q88.2604 448.791 85.9919 448.421 Q83.7466 448.05 81.3392 447.31 L81.3392 442.611 Q83.4225 443.745 85.6447 444.3 Q87.8669 444.856 90.3438 444.856 Q94.3484 444.856 96.6863 442.749 Q99.0243 440.643 99.0243 437.032 Q99.0243 433.421 96.6863 431.314 Q94.3484 429.208 90.3438 429.208 Q88.4688 429.208 86.5938 429.624 Q84.7419 430.041 82.7975 430.921 L82.7975 413.56 Z" fill="#000000" fill-rule="nonzero" fill-opacity="1" /><path clip-path="url(#clip340)" d="M122.913 416.638 Q119.302 416.638 117.473 420.203 Q115.668 423.745 115.668 430.874 Q115.668 437.981 117.473 441.546 Q119.302 445.087 122.913 445.087 Q126.547 445.087 128.353 441.546 Q130.182 437.981 130.182 430.874 Q130.182 423.745 128.353 420.203 Q126.547 416.638 122.913 416.638 M122.913 412.935 Q128.723 412.935 131.779 417.541 Q134.857 422.125 134.857 430.874 Q134.857 439.601 131.779 444.208 Q128.723 448.791 122.913 448.791 Q117.103 448.791 114.024 444.208 Q110.969 439.601 110.969 430.874 Q110.969 422.125 114.024 417.541 Q117.103 412.935 122.913 412.935 Z" fill="#000000" fill-rule="nonzero" fill-opacity="1" /><path clip-path="url(#clip340)" d="M56.6171 101.321 L72.9365 101.321 L72.9365 105.256 L50.9921 105.256 L50.9921 101.321 Q53.6541 98.5665 58.2375 93.9369 Q62.8439 89.2841 64.0245 87.9416 Q66.2698 85.4184 67.1494 83.6823 Q68.0522 81.9231 68.0522 80.2333 Q68.0522 77.4786 66.1078 75.7425 Q64.1865 74.0064 61.0847 74.0064 Q58.8856 74.0064 56.4319 74.7703 Q54.0014 75.5342 51.2236 77.0851 L51.2236 72.3629 Q54.0477 71.2287 56.5014 70.65 Q58.955 70.0713 60.9921 70.0713 Q66.3624 70.0713 69.5568 72.7565 Q72.7513 75.4416 72.7513 79.9323 Q72.7513 82.062 71.9411 83.9832 Q71.1541 85.8814 69.0476 88.474 Q68.4689 89.1453 65.367 92.3628 Q62.2652 95.5573 56.6171 101.321 Z" fill="#000000" fill-rule="nonzero" fill-opacity="1" /><path clip-path="url(#clip340)" d="M92.7512 73.775 Q89.1401 73.775 87.3114 77.3398 Q85.5058 80.8814 85.5058 88.011 Q85.5058 95.1174 87.3114 98.6822 Q89.1401 102.224 92.7512 102.224 Q96.3854 102.224 98.1909 98.6822 Q100.02 95.1174 100.02 88.011 Q100.02 80.8814 98.1909 77.3398 Q96.3854 73.775 92.7512 73.775 M92.7512 70.0713 Q98.5613 70.0713 101.617 74.6777 Q104.696 79.261 104.696 88.011 Q104.696 96.7378 101.617 101.344 Q98.5613 105.928 92.7512 105.928 Q86.941 105.928 83.8623 101.344 Q80.8068 96.7378 80.8068 88.011 Q80.8068 79.261 83.8623 74.6777 Q86.941 70.0713 92.7512 70.0713 Z" fill="#000000" fill-rule="nonzero" fill-opacity="1" /><path clip-path="url(#clip340)" d="M122.913 73.775 Q119.302 73.775 117.473 77.3398 Q115.668 80.8814 115.668 88.011 Q115.668 95.1174 117.473 98.6822 Q119.302 102.224 122.913 102.224 Q126.547 102.224 128.353 98.6822 Q130.182 95.1174 130.182 88.011 Q130.182 80.8814 128.353 77.3398 Q126.547 73.775 122.913 73.775 M122.913 70.0713 Q128.723 70.0713 131.779 74.6777 Q134.857 79.261 134.857 88.011 Q134.857 96.7378 131.779 101.344 Q128.723 105.928 122.913 105.928 Q117.103 105.928 114.024 101.344 Q110.969 96.7378 110.969 88.011 Q110.969 79.261 114.024 74.6777 Q117.103 70.0713 122.913 70.0713 Z" fill="#000000" fill-rule="nonzero" fill-opacity="1" /><circle clip-path="url(#clip342)" cx="232.609" cy="1445.72" r="14.4" fill="#009af9" fill-rule="evenodd" fill-opacity="1" stroke="#000000" stroke-opacity="1" stroke-width="3.2"/>
<circle clip-path="url(#clip342)" cx="461.32" cy="1404.57" r="14.4" fill="#009af9" fill-rule="evenodd" fill-opacity="1" stroke="#000000" stroke-opacity="1" stroke-width="3.2"/>
<circle clip-path="url(#clip342)" cx="690.03" cy="1336" r="14.4" fill="#009af9" fill-rule="evenodd" fill-opacity="1" stroke="#000000" stroke-opacity="1" stroke-width="3.2"/>
<circle clip-path="url(#clip342)" cx="918.741" cy="1240" r="14.4" fill="#009af9" fill-rule="evenodd" fill-opacity="1" stroke="#000000" stroke-opacity="1" stroke-width="3.2"/>
<circle clip-path="url(#clip342)" cx="1147.45" cy="1116.57" r="14.4" fill="#009af9" fill-rule="evenodd" fill-opacity="1" stroke="#000000" stroke-opacity="1" stroke-width="3.2"/>
<circle clip-path="url(#clip342)" cx="1376.16" cy="965.707" r="14.4" fill="#009af9" fill-rule="evenodd" fill-opacity="1" stroke="#000000" stroke-opacity="1" stroke-width="3.2"/>
<circle clip-path="url(#clip342)" cx="1604.87" cy="787.418" r="14.4" fill="#009af9" fill-rule="evenodd" fill-opacity="1" stroke="#000000" stroke-opacity="1" stroke-width="3.2"/>
<circle clip-path="url(#clip342)" cx="1833.58" cy="581.7" r="14.4" fill="#009af9" fill-rule="evenodd" fill-opacity="1" stroke="#000000" stroke-opacity="1" stroke-width="3.2"/>
<circle clip-path="url(#clip342)" cx="2062.29" cy="348.553" r="14.4" fill="#009af9" fill-rule="evenodd" fill-opacity="1" stroke="#000000" stroke-opacity="1" stroke-width="3.2"/>
<circle clip-path="url(#clip342)" cx="2291" cy="87.9763" r="14.4" fill="#009af9" fill-rule="evenodd" fill-opacity="1" stroke="#000000" stroke-opacity="1" stroke-width="3.2"/>
<path clip-path="url(#clip340)" d="M243.587 198.898 L514.207 198.898 L514.207 95.2176 L243.587 95.2176  Z" fill="#ffffff" fill-rule="evenodd" fill-opacity="1"/>
<polyline clip-path="url(#clip340)" style="stroke:#000000; stroke-linecap:round; stroke-linejoin:round; stroke-width:4; stroke-opacity:1; fill:none" points="243.587,198.898 514.207,198.898 514.207,95.2176 243.587,95.2176 243.587,198.898 "/>
<circle clip-path="url(#clip340)" cx="340.561" cy="147.058" r="20.48" fill="#009af9" fill-rule="evenodd" fill-opacity="1" stroke="#000000" stroke-opacity="1" stroke-width="4.55111"/>
<path clip-path="url(#clip340)" d="M451.376 166.745 Q449.571 171.375 447.858 172.787 Q446.145 174.199 443.275 174.199 L439.872 174.199 L439.872 170.634 L442.372 170.634 Q444.131 170.634 445.103 169.8 Q446.076 168.967 447.256 165.865 L448.02 163.921 L437.534 138.412 L442.048 138.412 L450.15 158.689 L458.251 138.412 L462.765 138.412 L451.376 166.745 Z" fill="#000000" fill-rule="nonzero" fill-opacity="1" /><path clip-path="url(#clip340)" d="M470.057 160.402 L477.696 160.402 L477.696 134.037 L469.386 135.703 L469.386 131.444 L477.649 129.778 L482.325 129.778 L482.325 160.402 L489.964 160.402 L489.964 164.338 L470.057 164.338 L470.057 160.402 Z" fill="#000000" fill-rule="nonzero" fill-opacity="1" /></svg>
