<?xml version="1.0" encoding="utf-8"?>
<svg xmlns="http://www.w3.org/2000/svg" xmlns:xlink="http://www.w3.org/1999/xlink" width="600" height="400" viewBox="0 0 2400 1600">
<defs>
  <clipPath id="clip370">
    <rect x="0" y="0" width="2400" height="1600"/>
  </clipPath>
</defs>
<path clip-path="url(#clip370)" d="M0 1600 L2400 1600 L2400 0 L0 0  Z" fill="#ffffff" fill-rule="evenodd" fill-opacity="1"/>
<defs>
  <clipPath id="clip371">
    <rect x="480" y="0" width="1681" height="1600"/>
  </clipPath>
</defs>
<path clip-path="url(#clip370)" d="M193.936 1486.45 L2352.76 1486.45 L2352.76 47.2441 L193.936 47.2441  Z" fill="#ffffff" fill-rule="evenodd" fill-opacity="1"/>
<defs>
  <clipPath id="clip372">
    <rect x="193" y="47" width="2160" height="1440"/>
  </clipPath>
</defs>
<polyline clip-path="url(#clip372)" style="stroke:#000000; stroke-linecap:round; stroke-linejoin:round; stroke-width:2; stroke-opacity:0.1; fill:none" points="458.697,1486.45 458.697,47.2441 "/>
<polyline clip-path="url(#clip372)" style="stroke:#000000; stroke-linecap:round; stroke-linejoin:round; stroke-width:2; stroke-opacity:0.1; fill:none" points="866.021,1486.45 866.021,47.2441 "/>
<polyline clip-path="url(#clip372)" style="stroke:#000000; stroke-linecap:round; stroke-linejoin:round; stroke-width:2; stroke-opacity:0.1; fill:none" points="1273.35,1486.45 1273.35,47.2441 "/>
<polyline clip-path="url(#clip372)" style="stroke:#000000; stroke-linecap:round; stroke-linejoin:round; stroke-width:2; stroke-opacity:0.1; fill:none" points="1680.67,1486.45 1680.67,47.2441 "/>
<polyline clip-path="url(#clip372)" style="stroke:#000000; stroke-linecap:round; stroke-linejoin:round; stroke-width:2; stroke-opacity:0.1; fill:none" points="2087.99,1486.45 2087.99,47.2441 "/>
<polyline clip-path="url(#clip372)" style="stroke:#000000; stroke-linecap:round; stroke-linejoin:round; stroke-width:2; stroke-opacity:0.1; fill:none" points="193.936,1445.79 2352.76,1445.79 "/>
<polyline clip-path="url(#clip372)" style="stroke:#000000; stroke-linecap:round; stroke-linejoin:round; stroke-width:2; stroke-opacity:0.1; fill:none" points="193.936,1106.33 2352.76,1106.33 "/>
<polyline clip-path="url(#clip372)" style="stroke:#000000; stroke-linecap:round; stroke-linejoin:round; stroke-width:2; stroke-opacity:0.1; fill:none" points="193.936,766.878 2352.76,766.878 "/>
<polyline clip-path="url(#clip372)" style="stroke:#000000; stroke-linecap:round; stroke-linejoin:round; stroke-width:2; stroke-opacity:0.1; fill:none" points="193.936,427.424 2352.76,427.424 "/>
<polyline clip-path="url(#clip372)" style="stroke:#000000; stroke-linecap:round; stroke-linejoin:round; stroke-width:2; stroke-opacity:0.1; fill:none" points="193.936,87.9692 2352.76,87.9692 "/>
<polyline clip-path="url(#clip370)" style="stroke:#000000; stroke-linecap:round; stroke-linejoin:round; stroke-width:4; stroke-opacity:1; fill:none" points="193.936,1486.45 2352.76,1486.45 "/>
<polyline clip-path="url(#clip370)" style="stroke:#000000; stroke-linecap:round; stroke-linejoin:round; stroke-width:4; stroke-opacity:1; fill:none" points="458.697,1486.45 458.697,1467.55 "/>
<polyline clip-path="url(#clip370)" style="stroke:#000000; stroke-linecap:round; stroke-linejoin:round; stroke-width:4; stroke-opacity:1; fill:none" points="866.021,1486.45 866.021,1467.55 "/>
<polyline clip-path="url(#clip370)" style="stroke:#000000; stroke-linecap:round; stroke-linejoin:round; stroke-width:4; stroke-opacity:1; fill:none" points="1273.35,1486.45 1273.35,1467.55 "/>
<polyline clip-path="url(#clip370)" style="stroke:#000000; stroke-linecap:round; stroke-linejoin:round; stroke-width:4; stroke-opacity:1; fill:none" points="1680.67,1486.45 1680.67,1467.55 "/>
<polyline clip-path="url(#clip370)" style="stroke:#000000; stroke-linecap:round; stroke-linejoin:round; stroke-width:4; stroke-opacity:1; fill:none" points="2087.99,1486.45 2087.99,1467.55 "/>
<path clip-path="url(#clip370)" d="M427.598 1532.02 L457.273 1532.02 L457.273 1535.95 L427.598 1535.95 L427.598 1532.02 Z" fill="#000000" fill-rule="nonzero" fill-opacity="1" /><path clip-path="url(#clip370)" d="M480.213 1518.36 L468.408 1536.81 L480.213 1536.81 L480.213 1518.36 M478.986 1514.29 L484.866 1514.29 L484.866 1536.81 L489.796 1536.81 L489.796 1540.7 L484.866 1540.7 L484.866 1548.85 L480.213 1548.85 L480.213 1540.7 L464.611 1540.7 L464.611 1536.19 L478.986 1514.29 Z" fill="#000000" fill-rule="nonzero" fill-opacity="1" /><path clip-path="url(#clip370)" d="M835.964 1532.02 L865.639 1532.02 L865.639 1535.95 L835.964 1535.95 L835.964 1532.02 Z" fill="#000000" fill-rule="nonzero" fill-opacity="1" /><path clip-path="url(#clip370)" d="M879.76 1544.91 L896.079 1544.91 L896.079 1548.85 L874.135 1548.85 L874.135 1544.91 Q876.797 1542.16 881.38 1537.53 Q885.987 1532.88 887.167 1531.53 Q889.413 1529.01 890.292 1527.27 Q891.195 1525.51 891.195 1523.82 Q891.195 1521.07 889.25 1519.33 Q887.329 1517.6 884.227 1517.6 Q882.028 1517.6 879.575 1518.36 Q877.144 1519.13 874.366 1520.68 L874.366 1515.95 Q877.19 1514.82 879.644 1514.24 Q882.098 1513.66 884.135 1513.66 Q889.505 1513.66 892.7 1516.35 Q895.894 1519.03 895.894 1523.52 Q895.894 1525.65 895.084 1527.57 Q894.297 1529.47 892.19 1532.07 Q891.612 1532.74 888.51 1535.95 Q885.408 1539.15 879.76 1544.91 Z" fill="#000000" fill-rule="nonzero" fill-opacity="1" /><path clip-path="url(#clip370)" d="M1273.35 1517.37 Q1269.73 1517.37 1267.91 1520.93 Q1266.1 1524.47 1266.1 1531.6 Q1266.1 1538.71 1267.91 1542.27 Q1269.73 1545.82 1273.35 1545.82 Q1276.98 1545.82 1278.79 1542.27 Q1280.61 1538.71 1280.61 1531.6 Q1280.61 1524.47 1278.79 1520.93 Q1276.98 1517.37 1273.35 1517.37 M1273.35 1513.66 Q1279.16 1513.66 1282.21 1518.27 Q1285.29 1522.85 1285.29 1531.6 Q1285.29 1540.33 1282.21 1544.94 Q1279.16 1549.52 1273.35 1549.52 Q1267.54 1549.52 1264.46 1544.94 Q1261.4 1540.33 1261.4 1531.6 Q1261.4 1522.85 1264.46 1518.27 Q1267.54 1513.66 1273.35 1513.66 Z" fill="#000000" fill-rule="nonzero" fill-opacity="1" /><path clip-path="url(#clip370)" d="M1675.32 1544.91 L1691.64 1544.91 L1691.64 1548.85 L1669.7 1548.85 L1669.7 1544.91 Q1672.36 1542.16 1676.94 1537.53 Q1681.55 1532.88 1682.73 1531.53 Q1684.98 1529.01 1685.86 1527.27 Q1686.76 1525.51 1686.76 1523.82 Q1686.76 1521.07 1684.81 1519.33 Q1682.89 1517.6 1679.79 1517.6 Q1677.59 1517.6 1675.14 1518.36 Q1672.71 1519.13 1669.93 1520.68 L1669.93 1515.95 Q1672.75 1514.82 1675.21 1514.24 Q1677.66 1513.66 1679.7 1513.66 Q1685.07 1513.66 1688.26 1516.35 Q1691.46 1519.03 1691.46 1523.52 Q1691.46 1525.65 1690.65 1527.57 Q1689.86 1529.47 1687.75 1532.07 Q1687.18 1532.74 1684.07 1535.95 Q1680.97 1539.15 1675.32 1544.91 Z" fill="#000000" fill-rule="nonzero" fill-opacity="1" /><path clip-path="url(#clip370)" d="M2091 1518.36 L2079.2 1536.81 L2091 1536.81 L2091 1518.36 M2089.78 1514.29 L2095.66 1514.29 L2095.66 1536.81 L2100.59 1536.81 L2100.59 1540.7 L2095.66 1540.7 L2095.66 1548.85 L2091 1548.85 L2091 1540.7 L2075.4 1540.7 L2075.4 1536.19 L2089.78 1514.29 Z" fill="#000000" fill-rule="nonzero" fill-opacity="1" /><polyline clip-path="url(#clip370)" style="stroke:#000000; stroke-linecap:round; stroke-linejoin:round; stroke-width:4; stroke-opacity:1; fill:none" points="193.936,1486.45 193.936,47.2441 "/>
<polyline clip-path="url(#clip370)" style="stroke:#000000; stroke-linecap:round; stroke-linejoin:round; stroke-width:4; stroke-opacity:1; fill:none" points="193.936,1445.79 212.834,1445.79 "/>
<polyline clip-path="url(#clip370)" style="stroke:#000000; stroke-linecap:round; stroke-linejoin:round; stroke-width:4; stroke-opacity:1; fill:none" points="193.936,1106.33 212.834,1106.33 "/>
<polyline clip-path="url(#clip370)" style="stroke:#000000; stroke-linecap:round; stroke-linejoin:round; stroke-width:4; stroke-opacity:1; fill:none" points="193.936,766.878 212.834,766.878 "/>
<polyline clip-path="url(#clip370)" style="stroke:#000000; stroke-linecap:round; stroke-linejoin:round; stroke-width:4; stroke-opacity:1; fill:none" points="193.936,427.424 212.834,427.424 "/>
<polyline clip-path="url(#clip370)" style="stroke:#000000; stroke-linecap:round; stroke-linejoin:round; stroke-width:4; stroke-opacity:1; fill:none" points="193.936,87.9692 212.834,87.9692 "/>
<path clip-path="url(#clip370)" d="M50.9921 1446.24 L80.6679 1446.24 L80.6679 1450.17 L50.9921 1450.17 L50.9921 1446.24 Z" fill="#000000" fill-rule="nonzero" fill-opacity="1" /><path clip-path="url(#clip370)" d="M91.5706 1459.13 L99.2095 1459.13 L99.2095 1432.77 L90.8993 1434.43 L90.8993 1430.17 L99.1632 1428.51 L103.839 1428.51 L103.839 1459.13 L111.478 1459.13 L111.478 1463.07 L91.5706 1463.07 L91.5706 1459.13 Z" fill="#000000" fill-rule="nonzero" fill-opacity="1" /><path clip-path="url(#clip370)" d="M120.922 1457.19 L125.807 1457.19 L125.807 1463.07 L120.922 1463.07 L120.922 1457.19 Z" fill="#000000" fill-rule="nonzero" fill-opacity="1" /><path clip-path="url(#clip370)" d="M145.992 1431.59 Q142.381 1431.59 140.552 1435.15 Q138.746 1438.69 138.746 1445.82 Q138.746 1452.93 140.552 1456.49 Q142.381 1460.03 145.992 1460.03 Q149.626 1460.03 151.431 1456.49 Q153.26 1452.93 153.26 1445.82 Q153.26 1438.69 151.431 1435.15 Q149.626 1431.59 145.992 1431.59 M145.992 1427.88 Q151.802 1427.88 154.857 1432.49 Q157.936 1437.07 157.936 1445.82 Q157.936 1454.55 154.857 1459.16 Q151.802 1463.74 145.992 1463.74 Q140.181 1463.74 137.103 1459.16 Q134.047 1454.55 134.047 1445.82 Q134.047 1437.07 137.103 1432.49 Q140.181 1427.88 145.992 1427.88 Z" fill="#000000" fill-rule="nonzero" fill-opacity="1" /><path clip-path="url(#clip370)" d="M51.9875 1106.78 L81.6633 1106.78 L81.6633 1110.72 L51.9875 1110.72 L51.9875 1106.78 Z" fill="#000000" fill-rule="nonzero" fill-opacity="1" /><path clip-path="url(#clip370)" d="M101.756 1092.13 Q98.1447 1092.13 96.316 1095.7 Q94.5104 1099.24 94.5104 1106.37 Q94.5104 1113.47 96.316 1117.04 Q98.1447 1120.58 101.756 1120.58 Q105.39 1120.58 107.196 1117.04 Q109.024 1113.47 109.024 1106.37 Q109.024 1099.24 107.196 1095.7 Q105.39 1092.13 101.756 1092.13 M101.756 1088.43 Q107.566 1088.43 110.621 1093.03 Q113.7 1097.62 113.7 1106.37 Q113.7 1115.09 110.621 1119.7 Q107.566 1124.28 101.756 1124.28 Q95.9456 1124.28 92.8669 1119.7 Q89.8114 1115.09 89.8114 1106.37 Q89.8114 1097.62 92.8669 1093.03 Q95.9456 1088.43 101.756 1088.43 Z" fill="#000000" fill-rule="nonzero" fill-opacity="1" /><path clip-path="url(#clip370)" d="M121.918 1117.73 L126.802 1117.73 L126.802 1123.61 L121.918 1123.61 L121.918 1117.73 Z" fill="#000000" fill-rule="nonzero" fill-opacity="1" /><path clip-path="url(#clip370)" d="M137.033 1089.05 L155.39 1089.05 L155.39 1092.99 L141.316 1092.99 L141.316 1101.46 Q142.334 1101.11 143.353 1100.95 Q144.371 1100.77 145.39 1100.77 Q151.177 1100.77 154.556 1103.94 Q157.936 1107.11 157.936 1112.52 Q157.936 1118.1 154.464 1121.21 Q150.992 1124.28 144.672 1124.28 Q142.496 1124.28 140.228 1123.91 Q137.982 1123.54 135.575 1122.8 L135.575 1118.1 Q137.658 1119.24 139.881 1119.79 Q142.103 1120.35 144.58 1120.35 Q148.584 1120.35 150.922 1118.24 Q153.26 1116.14 153.26 1112.52 Q153.26 1108.91 150.922 1106.81 Q148.584 1104.7 144.58 1104.7 Q142.705 1104.7 140.83 1105.12 Q138.978 1105.53 137.033 1106.41 L137.033 1089.05 Z" fill="#000000" fill-rule="nonzero" fill-opacity="1" /><path clip-path="url(#clip370)" d="M100.76 752.677 Q97.1493 752.677 95.3206 756.242 Q93.515 759.783 93.515 766.913 Q93.515 774.019 95.3206 777.584 Q97.1493 781.126 100.76 781.126 Q104.395 781.126 106.2 777.584 Q108.029 774.019 108.029 766.913 Q108.029 759.783 106.2 756.242 Q104.395 752.677 100.76 752.677 M100.76 748.973 Q106.571 748.973 109.626 753.58 Q112.705 758.163 112.705 766.913 Q112.705 775.64 109.626 780.246 Q106.571 784.829 100.76 784.829 Q94.9502 784.829 91.8715 780.246 Q88.816 775.64 88.816 766.913 Q88.816 758.163 91.8715 753.58 Q94.9502 748.973 100.76 748.973 Z" fill="#000000" fill-rule="nonzero" fill-opacity="1" /><path clip-path="url(#clip370)" d="M120.922 778.279 L125.807 778.279 L125.807 784.158 L120.922 784.158 L120.922 778.279 Z" fill="#000000" fill-rule="nonzero" fill-opacity="1" /><path clip-path="url(#clip370)" d="M145.992 752.677 Q142.381 752.677 140.552 756.242 Q138.746 759.783 138.746 766.913 Q138.746 774.019 140.552 777.584 Q142.381 781.126 145.992 781.126 Q149.626 781.126 151.431 777.584 Q153.26 774.019 153.26 766.913 Q153.26 759.783 151.431 756.242 Q149.626 752.677 145.992 752.677 M145.992 748.973 Q151.802 748.973 154.857 753.58 Q157.936 758.163 157.936 766.913 Q157.936 775.64 154.857 780.246 Q151.802 784.829 145.992 784.829 Q140.181 784.829 137.103 780.246 Q134.047 775.64 134.047 766.913 Q134.047 758.163 137.103 753.58 Q140.181 748.973 145.992 748.973 Z" fill="#000000" fill-rule="nonzero" fill-opacity="1" /><path clip-path="url(#clip370)" d="M101.756 413.222 Q98.1447 413.222 96.316 416.787 Q94.5104 420.329 94.5104 427.458 Q94.5104 434.565 96.316 438.13 Q98.1447 441.671 101.756 441.671 Q105.39 441.671 107.196 438.13 Q109.024 434.565 109.024 427.458 Q109.024 420.329 107.196 416.787 Q105.39 413.222 101.756 413.222 M101.756 409.519 Q107.566 409.519 110.621 414.125 Q113.7 418.708 113.7 427.458 Q113.7 436.185 110.621 440.792 Q107.566 445.375 101.756 445.375 Q95.9456 445.375 92.8669 440.792 Q89.8114 436.185 89.8114 427.458 Q89.8114 418.708 92.8669 414.125 Q95.9456 409.519 101.756 409.519 Z" fill="#000000" fill-rule="nonzero" fill-opacity="1" /><path clip-path="url(#clip370)" d="M121.918 438.824 L126.802 438.824 L126.802 444.704 L121.918 444.704 L121.918 438.824 Z" fill="#000000" fill-rule="nonzero" fill-opacity="1" /><path clip-path="url(#clip370)" d="M137.033 410.144 L155.39 410.144 L155.39 414.079 L141.316 414.079 L141.316 422.551 Q142.334 422.204 143.353 422.042 Q144.371 421.857 145.39 421.857 Q151.177 421.857 154.556 425.028 Q157.936 428.199 157.936 433.616 Q157.936 439.194 154.464 442.296 Q150.992 445.375 144.672 445.375 Q142.496 445.375 140.228 445.005 Q137.982 444.634 135.575 443.893 L135.575 439.194 Q137.658 440.329 139.881 440.884 Q142.103 441.44 144.58 441.44 Q148.584 441.44 150.922 439.333 Q153.26 437.227 153.26 433.616 Q153.26 430.005 150.922 427.898 Q148.584 425.792 144.58 425.792 Q142.705 425.792 140.83 426.208 Q138.978 426.625 137.033 427.505 L137.033 410.144 Z" fill="#000000" fill-rule="nonzero" fill-opacity="1" /><path clip-path="url(#clip370)" d="M91.5706 101.314 L99.2095 101.314 L99.2095 74.9484 L90.8993 76.6151 L90.8993 72.3558 L99.1632 70.6892 L103.839 70.6892 L103.839 101.314 L111.478 101.314 L111.478 105.249 L91.5706 105.249 L91.5706 101.314 Z" fill="#000000" fill-rule="nonzero" fill-opacity="1" /><path clip-path="url(#clip370)" d="M120.922 99.3696 L125.807 99.3696 L125.807 105.249 L120.922 105.249 L120.922 99.3696 Z" fill="#000000" fill-rule="nonzero" fill-opacity="1" /><path clip-path="url(#clip370)" d="M145.992 73.7678 Q142.381 73.7678 140.552 77.3326 Q138.746 80.8743 138.746 88.0039 Q138.746 95.1103 140.552 98.6751 Q142.381 102.217 145.992 102.217 Q149.626 102.217 151.431 98.6751 Q153.26 95.1103 153.26 88.0039 Q153.26 80.8743 151.431 77.3326 Q149.626 73.7678 145.992 73.7678 M145.992 70.0642 Q151.802 70.0642 154.857 74.6706 Q157.936 79.2539 157.936 88.0039 Q157.936 96.7307 154.857 101.337 Q151.802 105.92 145.992 105.92 Q140.181 105.92 137.103 101.337 Q134.047 96.7307 134.047 88.0039 Q134.047 79.2539 137.103 74.6706 Q140.181 70.0642 145.992 70.0642 Z" fill="#000000" fill-rule="nonzero" fill-opacity="1" /><polyline clip-path="url(#clip372)" style="stroke:#009af9; stroke-linecap:round; stroke-linejoin:round; stroke-width:4; stroke-opacity:1; fill:none" points="255.035,115.856 260.291,111.103 265.547,106.787 270.804,102.91 276.06,99.4758 291.453,91.9829 306.846,88.3435 314.543,87.9763 322.239,88.5785 329.936,90.1492 337.632,92.6863 345.329,96.1862 353.025,100.644 360.722,106.053 368.418,112.405 376.115,119.692 383.812,127.904 391.508,137.027 399.205,147.05 413.526,168.045 427.848,192 442.17,218.797 456.491,248.302 466.09,269.521 475.688,291.844 485.286,315.222 494.884,339.602 504.482,364.932 514.081,391.154 523.679,418.21 533.277,446.041 549.139,493.566 565.001,542.748 580.863,593.289 596.726,644.883 626.226,742.562 655.726,840.75 674.243,901.719 692.76,961.574 711.276,1019.82 729.793,1075.98 746.402,1124.19 763.012,1170.03 779.621,1213.19 796.231,1253.38 805.737,1274.95 815.243,1295.41 824.749,1314.71 834.254,1332.82 843.76,1349.7 853.266,1365.32 862.772,1379.62 872.278,1392.59 886.489,1409.44 900.701,1423.16 914.912,1433.68 929.123,1440.96 938.212,1443.89 947.3,1445.48 956.388,1445.72 965.476,1444.6 974.565,1442.14 983.653,1438.33 992.741,1433.18 1001.83,1426.71 1010.12,1419.66 1018.42,1411.52 1026.71,1402.31 1035.01,1392.05 1051.6,1368.44 1068.19,1340.84 1077.63,1323.42 1087.07,1304.8 1096.51,1285.03 1105.95,1264.15 1115.39,1242.2 1124.83,1219.22 1134.27,1195.28 1143.71,1170.41 1158.68,1129.24 1173.65,1086.1 1188.62,1041.25 1203.58,994.908 1240.77,874.992 1277.97,751.48 1306.45,657.019 1334.93,564.703 1355.01,501.895 1375.09,441.661 1385.12,412.693 1395.16,384.585 1405.2,357.405 1415.24,331.221 1430.24,294.078 1445.25,259.5 1460.25,227.674 1475.26,198.773 1483.79,183.705 1492.32,169.66 1500.85,156.663 1509.38,144.736 1517.91,133.901 1526.44,124.177 1534.97,115.58 1543.51,108.126 1551.96,101.882 1560.4,96.7834 1568.85,92.8376 1577.3,90.0516 1585.75,88.4303 1594.2,87.9764 1602.65,88.6908 1611.1,90.5721 1620.39,93.9863 1629.69,98.8019 1638.98,105.009 1648.28,112.594 1657.57,121.543 1666.87,131.835 1676.17,143.45 1685.46,156.363 1699.66,178.536 1713.86,203.567 1728.06,231.336 1742.26,261.707 1760.18,303.517 1778.1,348.911 1796.02,397.539 1813.94,449.025 1830.51,498.841 1847.09,550.432 1863.66,603.456 1880.23,657.561 1914.42,771.04 1948.6,884.402 1965.93,940.791 1983.25,995.923 2000.58,1049.4 2017.91,1100.83 2036,1151.95 2054.09,1200.03 2063.13,1222.82 2072.18,1244.7 2081.22,1265.64 2090.27,1285.6 2104.52,1314.96 2118.77,1341.63 2133.02,1365.49 2147.27,1386.42 2155.39,1396.98 2163.5,1406.55 2171.62,1415.1 2179.73,1422.62 2187.84,1429.11 2195.96,1434.54 2204.07,1438.91 2212.18,1442.22 2220.3,1444.45 2228.41,1445.61 2236.52,1445.69 2244.64,1444.69 2252.75,1442.62 2260.86,1439.48 2268.98,1435.27 2277.09,1430 2280.73,1427.29 2284.37,1424.37 2288.02,1421.24 2291.66,1417.9 "/>
<path clip-path="url(#clip370)" d="M2012.48 198.898 L2280.8 198.898 L2280.8 95.2176 L2012.48 95.2176  Z" fill="#ffffff" fill-rule="evenodd" fill-opacity="1"/>
<polyline clip-path="url(#clip370)" style="stroke:#000000; stroke-linecap:round; stroke-linejoin:round; stroke-width:4; stroke-opacity:1; fill:none" points="2012.48,198.898 2280.8,198.898 2280.8,95.2176 2012.48,95.2176 2012.48,198.898 "/>
<polyline clip-path="url(#clip370)" style="stroke:#009af9; stroke-linecap:round; stroke-linejoin:round; stroke-width:4; stroke-opacity:1; fill:none" points="2036.47,147.058 2180.39,147.058 "/>
<path clip-path="url(#clip370)" d="M2218.22 166.745 Q2216.42 171.375 2214.7 172.787 Q2212.99 174.199 2210.12 174.199 L2206.72 174.199 L2206.72 170.634 L2209.22 170.634 Q2210.98 170.634 2211.95 169.8 Q2212.92 168.967 2214.1 165.865 L2214.86 163.921 L2204.38 138.412 L2208.89 138.412 L2216.99 158.689 L2225.1 138.412 L2229.61 138.412 L2218.22 166.745 Z" fill="#000000" fill-rule="nonzero" fill-opacity="1" /><path clip-path="url(#clip370)" d="M2236.9 160.402 L2244.54 160.402 L2244.54 134.037 L2236.23 135.703 L2236.23 131.444 L2244.49 129.778 L2249.17 129.778 L2249.17 160.402 L2256.81 160.402 L2256.81 164.338 L2236.9 164.338 L2236.9 160.402 Z" fill="#000000" fill-rule="nonzero" fill-opacity="1" /></svg>
